<svg xmlns="http://www.w3.org/2000/svg" viewBox="0 0 1200 900" role="img" aria-labelledby="t d"><title id="t">Skulpturale Beratung</title><desc id="d">Warme Marmor-Skulptur in architektonischen Bögen mit goldener Lichtlinie.</desc><defs><linearGradient id="bg" x1="0" y1="0" x2="1" y2="1"><stop stop-color="#6e513d"/><stop offset=".48" stop-color="#a9896d"/><stop offset="1" stop-color="#d6bea0"/></linearGradient><linearGradient id="stone" x1=".2" y1="0" x2=".8" y2="1"><stop stop-color="#fff4df"/><stop offset=".5" stop-color="#d8bea0"/><stop offset="1" stop-color="#9c7c61"/></linearGradient><linearGradient id="shadow" x1="0" y1="0" x2="1" y2="1"><stop stop-color="#5c4434"/><stop offset="1" stop-color="#a18065"/></linearGradient><filter id="soft"><feGaussianBlur stdDeviation="18"/></filter><filter id="glow"><feGaussianBlur stdDeviation="7" result="b"/><feMerge><feMergeNode in="b"/><feMergeNode in="SourceGraphic"/></feMerge></filter></defs><rect width="1200" height="900" fill="url(#bg)"/><circle cx="955" cy="230" r="310" fill="none" stroke="#ead8be" stroke-width="82" opacity=".68"/><circle cx="955" cy="230" r="205" fill="#81634d" opacity=".35"/><path d="M0 640C180 570 300 585 455 700S765 875 1200 690V900H0Z" fill="#5a4030" opacity=".25"/><path d="M720 765c-20-78-35-147-20-205 18-69 76-97 102-144 22-42 15-91 25-132 15-61 62-111 124-120 57-8 119 20 149 70 28 47 23 107-1 155-20 39-51 71-61 114-13 56 15 108 34 159 14 38 20 73 21 103z" fill="url(#stone)"/><path d="M835 303c25-55 74-94 133-99 50-4 105 22 124 68 13 31 5 61-17 80-18 15-43 21-63 33-22 13-39 35-56 56-20 25-44 51-77 55-29 4-57-10-72-35-19-31-12-70 2-104z" fill="#f0ddc2"/><path d="M1006 278c44 13 72 46 69 78-3 36-41 66-83 75-42 10-82 3-114-21 41 2 77-13 96-41 17-26 17-61 32-91z" fill="url(#shadow)" opacity=".55"/><path d="M920 316c29-17 62-17 88-4" fill="none" stroke="#7c604a" stroke-width="8" stroke-linecap="round" opacity=".45"/><path d="M945 355c15 8 34 8 50 0" fill="none" stroke="#8a6950" stroke-width="6" stroke-linecap="round" opacity=".5"/><path d="M882 386c25 15 54 20 82 17" fill="none" stroke="#8a6950" stroke-width="5" stroke-linecap="round" opacity=".55"/><ellipse cx="926" cy="317" rx="10" ry="5" fill="#705442" opacity=".6"/><path d="M610 795C665 655 765 535 880 451" fill="none" stroke="#f3d094" stroke-width="3" filter="url(#glow)"/><path d="M-30 760C250 690 418 606 600 414S946 108 1235 84" fill="none" stroke="#f7dba4" stroke-width="2.5" filter="url(#glow)" opacity=".95"/><circle cx="250" cy="710" r="93" fill="url(#stone)"/><ellipse cx="250" cy="806" rx="120" ry="26" fill="#5b4030" opacity=".22" filter="url(#soft)"/><circle cx="170" cy="120" r="270" fill="#f7e6ca" opacity=".10" filter="url(#soft)"/></svg>